<svg xmlns="http://www.w3.org/2000/svg" xmlns:xlink="http://www.w3.org/1999/xlink" width="70" zoomAndPan="magnify" viewBox="0 0 52.5 30.000001" height="40" preserveAspectRatio="xMidYMid meet" version="1.0"><defs><g/></defs><g fill="#ffffff" fill-opacity="1"><g transform="translate(5.886651, 17.018458)"><g><path d="M 0.359375 -3.84375 L 0.046875 -3.84375 L 0.359375 -5.265625 L 1.953125 -5.265625 C 2.109375 -5.265625 2.25 -5.257812 2.375 -5.25 C 2.507812 -5.238281 2.625 -5.222656 2.71875 -5.203125 C 2.820312 -5.179688 2.910156 -5.15625 2.984375 -5.125 C 3.054688 -5.09375 3.128906 -5.050781 3.203125 -5 C 3.347656 -4.894531 3.457031 -4.75 3.53125 -4.5625 C 3.613281 -4.375 3.65625 -4.160156 3.65625 -3.921875 C 3.65625 -3.648438 3.613281 -3.425781 3.53125 -3.25 C 3.445312 -3.070312 3.304688 -2.914062 3.109375 -2.78125 C 3.359375 -2.6875 3.535156 -2.535156 3.640625 -2.328125 C 3.753906 -2.117188 3.8125 -1.835938 3.8125 -1.484375 C 3.8125 -0.953125 3.660156 -0.550781 3.359375 -0.28125 C 3.296875 -0.226562 3.226562 -0.179688 3.15625 -0.140625 C 3.09375 -0.109375 3.007812 -0.0820312 2.90625 -0.0625 C 2.8125 -0.0390625 2.691406 -0.0234375 2.546875 -0.015625 C 2.410156 -0.00390625 2.238281 0 2.03125 0 L 0.359375 0 Z M 1.78125 -3.125 C 1.976562 -3.125 2.109375 -3.15625 2.171875 -3.21875 C 2.234375 -3.28125 2.265625 -3.394531 2.265625 -3.5625 C 2.265625 -3.707031 2.234375 -3.8125 2.171875 -3.875 C 2.109375 -3.9375 2.003906 -3.96875 1.859375 -3.96875 L 1.78125 -3.96875 Z M 1.78125 -1.3125 C 1.800781 -1.300781 1.820312 -1.296875 1.84375 -1.296875 C 1.875 -1.296875 1.894531 -1.296875 1.90625 -1.296875 C 2.050781 -1.296875 2.15625 -1.332031 2.21875 -1.40625 C 2.28125 -1.476562 2.3125 -1.601562 2.3125 -1.78125 C 2.3125 -1.957031 2.269531 -2.078125 2.1875 -2.140625 C 2.113281 -2.203125 1.976562 -2.234375 1.78125 -2.234375 Z M 1.78125 -1.3125 "/></g></g></g><g fill="#ffffff" fill-opacity="1"><g transform="translate(9.900202, 17.018458)"><g><path d="M 0.328125 -4.109375 L 0.046875 -4.109375 L 0.328125 -5.390625 L 1.625 -5.390625 L 1.625 -1.265625 L 1.90625 -1.265625 L 1.625 0 L 0.328125 0 Z M 0.328125 -4.109375 "/></g></g></g><g fill="#ffffff" fill-opacity="1"><g transform="translate(11.839955, 17.018458)"><g><path d="M 0.328125 -2.546875 L 0.046875 -2.546875 L 0.328125 -3.84375 L 1.625 -3.84375 L 1.625 -1.265625 L 1.90625 -1.265625 L 1.625 0 L 0.328125 0 Z M 0.546875 -5.421875 L 1.84375 -5.421875 L 1.5625 -4.140625 L 0.265625 -4.140625 Z M 0.546875 -5.421875 "/></g></g></g><g fill="#ffffff" fill-opacity="1"><g transform="translate(13.779707, 17.018458)"><g><path d="M 0.328125 -2.546875 L 0.046875 -2.546875 L 0.328125 -3.84375 L 1.625 -3.84375 L 1.625 -2.6875 L 1.890625 -3.84375 C 2.046875 -3.84375 2.164062 -3.84375 2.25 -3.84375 C 2.34375 -3.84375 2.414062 -3.835938 2.46875 -3.828125 C 2.519531 -3.828125 2.5625 -3.820312 2.59375 -3.8125 C 2.625 -3.8125 2.660156 -3.804688 2.703125 -3.796875 C 2.804688 -3.773438 2.90625 -3.726562 3 -3.65625 C 3.101562 -3.582031 3.1875 -3.488281 3.25 -3.375 C 3.28125 -3.320312 3.300781 -3.269531 3.3125 -3.21875 C 3.332031 -3.175781 3.347656 -3.117188 3.359375 -3.046875 C 3.367188 -2.972656 3.375 -2.878906 3.375 -2.765625 C 3.375 -2.648438 3.375 -2.492188 3.375 -2.296875 L 3.375 -1.265625 L 3.65625 -1.265625 L 3.375 0 L 2.078125 0 L 2.078125 -1.703125 C 2.078125 -1.835938 2.078125 -1.941406 2.078125 -2.015625 C 2.078125 -2.097656 2.078125 -2.160156 2.078125 -2.203125 C 2.078125 -2.253906 2.070312 -2.296875 2.0625 -2.328125 C 2.050781 -2.359375 2.039062 -2.382812 2.03125 -2.40625 C 1.976562 -2.507812 1.875 -2.5625 1.71875 -2.5625 C 1.707031 -2.5625 1.691406 -2.5625 1.671875 -2.5625 C 1.660156 -2.5625 1.644531 -2.554688 1.625 -2.546875 L 1.625 0 L 0.328125 0 Z M 0.328125 -2.546875 "/></g></g></g><g fill="#ffffff" fill-opacity="1"><g transform="translate(17.469967, 17.018458)"><g><path d="M 0.328125 -4.109375 L 0.046875 -4.109375 L 0.328125 -5.390625 L 1.625 -5.390625 L 1.625 -2.5625 L 2.09375 -3.84375 L 3.4375 -3.84375 L 2.71875 -2.09375 L 3.59375 0 L 2.140625 0 L 1.625 -1.53125 L 1.625 0 L 0.328125 0 Z M 0.328125 -4.109375 "/></g></g></g><g fill="#ffffff" fill-opacity="1"><g transform="translate(20.963098, 17.018458)"><g><path d="M 2.96875 -0.046875 C 2.800781 0.00390625 2.648438 0.0351562 2.515625 0.046875 C 2.378906 0.0664062 2.238281 0.078125 2.09375 0.078125 C 1.726562 0.078125 1.421875 0.015625 1.171875 -0.109375 C 0.921875 -0.234375 0.707031 -0.425781 0.53125 -0.6875 C 0.269531 -1.070312 0.140625 -1.503906 0.140625 -1.984375 C 0.140625 -2.253906 0.179688 -2.503906 0.265625 -2.734375 C 0.347656 -2.972656 0.460938 -3.179688 0.609375 -3.359375 C 0.765625 -3.535156 0.941406 -3.671875 1.140625 -3.765625 C 1.335938 -3.867188 1.554688 -3.921875 1.796875 -3.921875 C 2.335938 -3.921875 2.742188 -3.679688 3.015625 -3.203125 C 3.242188 -2.796875 3.359375 -2.332031 3.359375 -1.8125 C 3.359375 -1.800781 3.359375 -1.773438 3.359375 -1.734375 C 3.359375 -1.691406 3.359375 -1.648438 3.359375 -1.609375 L 1.46875 -1.609375 C 1.539062 -1.410156 1.640625 -1.269531 1.765625 -1.1875 C 1.890625 -1.101562 2.070312 -1.0625 2.3125 -1.0625 C 2.445312 -1.0625 2.597656 -1.070312 2.765625 -1.09375 C 2.929688 -1.125 3.085938 -1.164062 3.234375 -1.21875 Z M 2.125 -2.375 C 2.101562 -2.5625 2.0625 -2.691406 2 -2.765625 C 1.945312 -2.847656 1.875 -2.890625 1.78125 -2.890625 C 1.6875 -2.890625 1.601562 -2.84375 1.53125 -2.75 C 1.46875 -2.65625 1.429688 -2.53125 1.421875 -2.375 Z M 2.125 -2.375 "/></g></g></g><g fill="#ffffff" fill-opacity="1"><g transform="translate(24.440458, 17.018458)"><g><path d="M 2.96875 -0.046875 C 2.800781 0.00390625 2.648438 0.0351562 2.515625 0.046875 C 2.378906 0.0664062 2.238281 0.078125 2.09375 0.078125 C 1.726562 0.078125 1.421875 0.015625 1.171875 -0.109375 C 0.921875 -0.234375 0.707031 -0.425781 0.53125 -0.6875 C 0.269531 -1.070312 0.140625 -1.503906 0.140625 -1.984375 C 0.140625 -2.253906 0.179688 -2.503906 0.265625 -2.734375 C 0.347656 -2.972656 0.460938 -3.179688 0.609375 -3.359375 C 0.765625 -3.535156 0.941406 -3.671875 1.140625 -3.765625 C 1.335938 -3.867188 1.554688 -3.921875 1.796875 -3.921875 C 2.335938 -3.921875 2.742188 -3.679688 3.015625 -3.203125 C 3.242188 -2.796875 3.359375 -2.332031 3.359375 -1.8125 C 3.359375 -1.800781 3.359375 -1.773438 3.359375 -1.734375 C 3.359375 -1.691406 3.359375 -1.648438 3.359375 -1.609375 L 1.46875 -1.609375 C 1.539062 -1.410156 1.640625 -1.269531 1.765625 -1.1875 C 1.890625 -1.101562 2.070312 -1.0625 2.3125 -1.0625 C 2.445312 -1.0625 2.597656 -1.070312 2.765625 -1.09375 C 2.929688 -1.125 3.085938 -1.164062 3.234375 -1.21875 Z M 2.125 -2.375 C 2.101562 -2.5625 2.0625 -2.691406 2 -2.765625 C 1.945312 -2.847656 1.875 -2.890625 1.78125 -2.890625 C 1.6875 -2.890625 1.601562 -2.84375 1.53125 -2.75 C 1.46875 -2.65625 1.429688 -2.53125 1.421875 -2.375 Z M 2.125 -2.375 "/></g></g></g><path stroke-linecap="butt" transform="matrix(0.0454969, 0, 0, 0.0454969, 28.566533, 9.01101)" fill="none" stroke-linejoin="miter" d="M 24.209049 142.19571 C 29.102931 142.19571 32.880664 143.827004 35.713964 147.089592 C 38.461406 150.266322 39.835128 154.645058 39.835128 160.225801 C 39.835128 165.806543 38.375549 170.185279 35.456391 173.447867 C 32.451376 176.624597 28.587785 178.255891 23.779761 178.255891 C 18.88588 178.255891 15.022289 176.624597 12.103131 173.447867 C 9.183974 170.185279 7.810253 165.8924 7.810253 160.569231 C 7.810253 154.988489 9.269831 150.609752 12.274846 147.261307 C 15.279862 143.827004 19.315167 142.19571 24.209049 142.19571 Z M 131.874446 163.660104 C 121.313965 173.018579 110.15248 177.740746 98.47585 177.740746 C 91.521387 177.740746 84.824496 176.023594 78.471036 172.589291 C 72.203433 169.240846 66.794406 164.432822 62.415669 158.336934 C 55.031918 148.034025 51.340042 135.241247 51.340042 119.872741 C 51.340042 108.539541 53.143051 98.408348 56.74907 89.393303 C 60.440945 80.464115 65.506542 73.337936 72.117575 68.014767 C 75.809451 65.009752 79.844757 62.691597 84.223493 61.146161 C 88.602229 59.514867 92.980966 58.656291 97.359702 58.656291 C 98.990996 58.656291 100.62229 58.742149 102.081868 58.999722 C 103.541447 59.257294 105.516171 59.600725 107.920183 60.201728 L 109.723192 56.595709 L 132.904737 67.327906 L 119.940244 101.842651 C 116.935229 97.807345 114.016071 94.888187 111.182771 93.085178 C 108.349471 91.282169 105.086883 90.423593 101.395008 90.423593 C 89.97595 90.423593 84.223493 99.782069 84.223493 118.584878 C 84.223493 127.68578 85.597214 134.640244 88.344657 139.619983 C 91.177956 144.599722 95.041547 147.089592 100.021287 147.089592 C 107.147465 147.089592 113.844356 141.938138 119.940244 131.806944 Z M 173.515369 89.82259 C 178.838539 89.82259 183.646563 90.938739 188.111157 93.085178 C 192.575751 95.231618 196.439342 98.236633 199.616072 102.186081 C 202.87866 106.049672 205.368529 110.771838 207.171538 116.095008 C 208.974547 121.504035 209.918981 127.34235 209.918981 133.69581 C 209.918981 140.220986 208.974547 146.145159 207.171538 151.554186 C 205.368529 156.963213 202.87866 161.599522 199.616072 165.463113 C 196.439342 169.412561 192.575751 172.417576 187.939442 174.478158 C 183.38899 176.624597 178.409251 177.740746 173.000224 177.740746 C 167.762912 177.740746 162.954888 176.624597 158.662009 174.3923 C 154.283273 172.245861 150.50554 169.154988 147.32881 165.291397 C 144.066222 161.341949 141.576352 156.70564 139.773343 151.296613 C 137.970334 145.973443 137.111758 140.049271 137.111758 133.69581 C 137.111758 127.34235 137.970334 121.504035 139.773343 116.095008 C 141.576352 110.771838 144.066222 106.135529 147.32881 102.271939 C 150.50554 98.408348 154.369131 95.317475 158.833724 93.171036 C 163.298318 90.938739 168.1922 89.82259 173.515369 89.82259 Z M 173.515369 118.756593 C 170.853785 118.756593 168.793203 120.130314 167.419482 122.877756 C 166.045761 125.625199 165.3589 129.488789 165.3589 134.554386 C 165.3589 139.791698 166.045761 143.741147 167.419482 146.488589 C 168.793203 149.150174 170.853785 150.523895 173.515369 150.523895 C 176.176954 150.523895 178.151678 149.150174 179.5254 146.488589 C 180.899121 143.741147 181.585981 139.877556 181.585981 134.897816 C 181.585981 124.16562 178.924397 118.756593 173.515369 118.756593 Z M 220.307747 120.044456 L 213.868429 120.044456 L 220.307747 91.539742 L 248.726604 91.539742 L 248.726604 117.039441 L 254.221488 91.539742 C 255.93864 91.453884 257.398219 91.453884 258.600225 91.453884 C 259.716373 91.453884 260.746664 91.453884 261.691097 91.453884 C 267.014267 91.453884 271.13543 91.883172 273.96873 92.913463 C 276.887888 93.857896 279.463615 95.660905 281.610054 98.32249 C 283.327206 100.46893 284.615069 102.787084 285.387788 105.448669 C 286.160506 108.110254 286.675651 111.973844 287.019082 117.039441 L 292.513966 91.539742 C 297.064418 91.539742 300.670436 91.625599 303.503736 91.711457 C 306.251178 91.883172 308.483475 92.140745 310.200626 92.484175 C 311.917778 92.827605 313.377357 93.342751 314.493505 93.943754 C 315.609653 94.544757 316.725802 95.403333 318.013666 96.433624 C 322.048971 99.953784 324.367126 104.675951 324.796414 110.685981 C 324.882271 111.716272 324.968129 112.574847 325.053987 113.261708 C 325.139844 113.948569 325.139844 114.893002 325.225702 116.00915 C 325.311559 117.211156 325.311559 118.756593 325.311559 120.731317 C 325.311559 122.706041 325.311559 125.453483 325.311559 129.059501 L 325.311559 148.291598 L 331.407447 148.291598 L 325.311559 176.023594 L 296.892702 176.023594 L 296.892702 139.619983 C 296.892702 136.013965 296.892702 133.266523 296.892702 131.205941 C 296.892702 129.231217 296.806845 127.68578 296.806845 126.655489 C 296.720987 125.539341 296.63513 124.85248 296.463415 124.423193 C 296.291699 124.079762 296.119984 123.564617 295.862412 123.135329 C 295.261409 122.105038 294.316975 121.246462 293.029112 120.645459 C 291.827106 120.044456 290.367527 119.701026 288.907948 119.872741 C 288.13523 119.872741 287.448369 119.872741 287.019082 120.044456 L 287.019082 176.023594 L 258.600225 176.023594 L 258.600225 138.246262 C 258.600225 135.412962 258.514367 133.180665 258.514367 131.377656 C 258.42851 129.574647 258.342652 128.115068 258.342652 127.084777 C 258.256794 125.968629 258.170937 125.110053 257.999222 124.50905 C 257.827507 123.993905 257.655791 123.392902 257.398219 122.963614 C 256.367928 120.903032 254.049773 119.872741 250.61547 119.872741 C 250.357898 119.872741 250.100325 119.872741 249.842752 119.872741 C 249.499322 119.872741 249.155892 119.872741 248.726604 120.044456 L 248.726604 176.023594 L 220.307747 176.023594 Z M 220.307747 120.044456 " stroke="#ffffff" stroke-width="4.658056" stroke-opacity="1" stroke-miterlimit="4"/></svg>