<svg xmlns="http://www.w3.org/2000/svg" xmlns:xlink="http://www.w3.org/1999/xlink" width="70" zoomAndPan="magnify" viewBox="0 0 52.5 30.000001" height="40" preserveAspectRatio="xMidYMid meet" version="1.0"><defs><g/><clipPath id="56e3013ffb"><path d="M 29 8 L 51.410156 8 L 51.410156 20 L 29 20 Z M 29 8 " clip-rule="nonzero"/></clipPath></defs><g fill="#ffffff" fill-opacity="1"><g transform="translate(1.324224, 17.599287)"><g><path d="M 0.46875 -5 L 0.046875 -5 L 0.46875 -6.84375 L 2.53125 -6.84375 C 2.75 -6.84375 2.9375 -6.835938 3.09375 -6.828125 C 3.257812 -6.816406 3.40625 -6.796875 3.53125 -6.765625 C 3.664062 -6.742188 3.78125 -6.707031 3.875 -6.65625 C 3.976562 -6.613281 4.078125 -6.566406 4.171875 -6.515625 C 4.347656 -6.367188 4.488281 -6.171875 4.59375 -5.921875 C 4.695312 -5.679688 4.75 -5.410156 4.75 -5.109375 C 4.75 -4.753906 4.695312 -4.460938 4.59375 -4.234375 C 4.488281 -4.003906 4.304688 -3.796875 4.046875 -3.609375 C 4.367188 -3.492188 4.601562 -3.300781 4.75 -3.03125 C 4.894531 -2.757812 4.96875 -2.394531 4.96875 -1.9375 C 4.96875 -1.238281 4.769531 -0.71875 4.375 -0.375 C 4.289062 -0.289062 4.203125 -0.222656 4.109375 -0.171875 C 4.023438 -0.128906 3.914062 -0.09375 3.78125 -0.0625 C 3.65625 -0.0390625 3.5 -0.0234375 3.3125 -0.015625 C 3.132812 -0.00390625 2.914062 0 2.65625 0 L 0.46875 0 Z M 2.3125 -4.078125 C 2.570312 -4.078125 2.742188 -4.113281 2.828125 -4.1875 C 2.910156 -4.257812 2.953125 -4.410156 2.953125 -4.640625 C 2.953125 -4.828125 2.910156 -4.957031 2.828125 -5.03125 C 2.742188 -5.113281 2.609375 -5.15625 2.421875 -5.15625 L 2.3125 -5.15625 Z M 2.3125 -1.703125 C 2.34375 -1.691406 2.375 -1.6875 2.40625 -1.6875 C 2.4375 -1.6875 2.457031 -1.6875 2.46875 -1.6875 C 2.664062 -1.6875 2.804688 -1.734375 2.890625 -1.828125 C 2.972656 -1.929688 3.015625 -2.09375 3.015625 -2.3125 C 3.015625 -2.539062 2.960938 -2.695312 2.859375 -2.78125 C 2.753906 -2.875 2.570312 -2.921875 2.3125 -2.921875 Z M 2.3125 -1.703125 "/></g></g></g><g fill="#ffffff" fill-opacity="1"><g transform="translate(6.55016, 17.599287)"><g><path d="M 0.4375 -5.34375 L 0.046875 -5.34375 L 0.4375 -7.015625 L 2.109375 -7.015625 L 2.109375 -1.640625 L 2.46875 -1.640625 L 2.109375 0 L 0.4375 0 Z M 0.4375 -5.34375 "/></g></g></g><g fill="#ffffff" fill-opacity="1"><g transform="translate(9.075858, 17.599287)"><g><path d="M 0.4375 -3.3125 L 0.046875 -3.3125 L 0.4375 -5 L 2.109375 -5 L 2.109375 -1.640625 L 2.46875 -1.640625 L 2.109375 0 L 0.4375 0 Z M 0.71875 -7.046875 L 2.390625 -7.046875 L 2.03125 -5.375 L 0.34375 -5.375 Z M 0.71875 -7.046875 "/></g></g></g><g fill="#ffffff" fill-opacity="1"><g transform="translate(11.601556, 17.599287)"><g><path d="M 0.4375 -3.3125 L 0.046875 -3.3125 L 0.4375 -5 L 2.109375 -5 L 2.109375 -3.484375 L 2.453125 -5 C 2.660156 -5 2.820312 -5 2.9375 -5 C 3.050781 -5 3.140625 -4.992188 3.203125 -4.984375 C 3.273438 -4.984375 3.328125 -4.976562 3.359375 -4.96875 C 3.398438 -4.96875 3.453125 -4.960938 3.515625 -4.953125 C 3.648438 -4.910156 3.78125 -4.84375 3.90625 -4.75 C 4.039062 -4.65625 4.144531 -4.535156 4.21875 -4.390625 C 4.257812 -4.328125 4.289062 -4.265625 4.3125 -4.203125 C 4.34375 -4.140625 4.363281 -4.0625 4.375 -3.96875 C 4.382812 -3.875 4.390625 -3.75 4.390625 -3.59375 C 4.390625 -3.445312 4.390625 -3.25 4.390625 -3 L 4.390625 -1.640625 L 4.75 -1.640625 L 4.390625 0 L 2.703125 0 L 2.703125 -2.21875 C 2.703125 -2.394531 2.703125 -2.535156 2.703125 -2.640625 C 2.703125 -2.742188 2.703125 -2.828125 2.703125 -2.890625 C 2.703125 -2.953125 2.695312 -3 2.6875 -3.03125 C 2.675781 -3.0625 2.664062 -3.09375 2.65625 -3.125 C 2.582031 -3.257812 2.441406 -3.328125 2.234375 -3.328125 C 2.210938 -3.328125 2.191406 -3.328125 2.171875 -3.328125 C 2.160156 -3.328125 2.140625 -3.320312 2.109375 -3.3125 L 2.109375 0 L 0.4375 0 Z M 0.4375 -3.3125 "/></g></g></g><g fill="#ffffff" fill-opacity="1"><g transform="translate(16.406543, 17.599287)"><g><path d="M 0.4375 -5.34375 L 0.046875 -5.34375 L 0.4375 -7.015625 L 2.109375 -7.015625 L 2.109375 -3.328125 L 2.71875 -5 L 4.46875 -5 L 3.53125 -2.734375 L 4.671875 0 L 2.796875 0 L 2.109375 -1.984375 L 2.109375 0 L 0.4375 0 Z M 0.4375 -5.34375 "/></g></g></g><g fill="#ffffff" fill-opacity="1"><g transform="translate(20.954853, 17.599287)"><g><path d="M 3.859375 -0.046875 C 3.648438 0.00390625 3.457031 0.0390625 3.28125 0.0625 C 3.101562 0.09375 2.914062 0.109375 2.71875 0.109375 C 2.25 0.109375 1.847656 0.03125 1.515625 -0.125 C 1.191406 -0.289062 0.914062 -0.550781 0.6875 -0.90625 C 0.351562 -1.40625 0.1875 -1.960938 0.1875 -2.578125 C 0.1875 -2.929688 0.238281 -3.257812 0.34375 -3.5625 C 0.457031 -3.875 0.609375 -4.144531 0.796875 -4.375 C 0.992188 -4.601562 1.222656 -4.78125 1.484375 -4.90625 C 1.742188 -5.039062 2.03125 -5.109375 2.34375 -5.109375 C 3.039062 -5.109375 3.570312 -4.789062 3.9375 -4.15625 C 4.226562 -3.625 4.375 -3.019531 4.375 -2.34375 C 4.375 -2.332031 4.375 -2.300781 4.375 -2.25 C 4.375 -2.195312 4.367188 -2.144531 4.359375 -2.09375 L 1.90625 -2.09375 C 2 -1.832031 2.128906 -1.644531 2.296875 -1.53125 C 2.460938 -1.425781 2.703125 -1.375 3.015625 -1.375 C 3.191406 -1.375 3.390625 -1.390625 3.609375 -1.421875 C 3.828125 -1.460938 4.023438 -1.519531 4.203125 -1.59375 Z M 2.765625 -3.09375 C 2.734375 -3.332031 2.679688 -3.503906 2.609375 -3.609375 C 2.535156 -3.710938 2.4375 -3.765625 2.3125 -3.765625 C 2.1875 -3.765625 2.082031 -3.703125 2 -3.578125 C 1.914062 -3.453125 1.863281 -3.289062 1.84375 -3.09375 Z M 2.765625 -3.09375 "/></g></g></g><g fill="#ffffff" fill-opacity="1"><g transform="translate(25.482629, 17.599287)"><g><path d="M 3.859375 -0.046875 C 3.648438 0.00390625 3.457031 0.0390625 3.28125 0.0625 C 3.101562 0.09375 2.914062 0.109375 2.71875 0.109375 C 2.25 0.109375 1.847656 0.03125 1.515625 -0.125 C 1.191406 -0.289062 0.914062 -0.550781 0.6875 -0.90625 C 0.351562 -1.40625 0.1875 -1.960938 0.1875 -2.578125 C 0.1875 -2.929688 0.238281 -3.257812 0.34375 -3.5625 C 0.457031 -3.875 0.609375 -4.144531 0.796875 -4.375 C 0.992188 -4.601562 1.222656 -4.78125 1.484375 -4.90625 C 1.742188 -5.039062 2.03125 -5.109375 2.34375 -5.109375 C 3.039062 -5.109375 3.570312 -4.789062 3.9375 -4.15625 C 4.226562 -3.625 4.375 -3.019531 4.375 -2.34375 C 4.375 -2.332031 4.375 -2.300781 4.375 -2.25 C 4.375 -2.195312 4.367188 -2.144531 4.359375 -2.09375 L 1.90625 -2.09375 C 2 -1.832031 2.128906 -1.644531 2.296875 -1.53125 C 2.460938 -1.425781 2.703125 -1.375 3.015625 -1.375 C 3.191406 -1.375 3.390625 -1.390625 3.609375 -1.421875 C 3.828125 -1.460938 4.023438 -1.519531 4.203125 -1.59375 Z M 2.765625 -3.09375 C 2.734375 -3.332031 2.679688 -3.503906 2.609375 -3.609375 C 2.535156 -3.710938 2.4375 -3.765625 2.3125 -3.765625 C 2.1875 -3.765625 2.082031 -3.703125 2 -3.578125 C 1.914062 -3.453125 1.863281 -3.289062 1.84375 -3.09375 Z M 2.765625 -3.09375 "/></g></g></g><g clip-path="url(#56e3013ffb)"><path stroke-linecap="butt" transform="matrix(0.0592402, 0, 0, 0.0592402, 30.855079, 7.173009)" fill="none" stroke-linejoin="miter" d="M 24.272189 142.211627 C 29.085748 142.211627 32.910219 143.794167 35.679664 147.025186 C 38.449109 150.322144 39.833831 154.674128 39.833831 160.213018 C 39.833831 165.751907 38.38317 170.169831 35.415907 173.40085 C 32.514584 176.631868 28.558235 178.214408 23.744676 178.214408 C 18.865178 178.214408 14.974768 176.631868 12.073445 173.40085 C 9.238061 170.169831 7.7874 165.883785 7.7874 160.542714 C 7.7874 155.003824 9.304 150.5859 12.271262 147.223003 C 15.304464 143.860106 19.260813 142.211627 24.272189 142.211627 Z M 131.884898 163.707793 C 121.268693 173.071154 110.124975 177.752834 98.453744 177.752834 C 91.530132 177.752834 84.870277 176.038416 78.540118 172.60958 C 72.144019 169.180743 66.802947 164.433124 62.385024 158.300782 C 54.999838 148.014273 51.307245 135.222076 51.307245 119.858252 C 51.307245 108.516717 53.153541 98.362086 56.780195 89.39436 C 60.406849 80.492574 65.484164 73.371145 72.07808 68.030073 C 75.836612 64.996871 79.858901 62.75494 84.210885 61.106461 C 88.628809 59.457982 92.980794 58.666712 97.398717 58.666712 C 99.047196 58.666712 100.563797 58.79859 102.080398 58.996408 C 103.596998 59.194225 105.509234 59.6558 107.948983 60.249252 L 109.72934 56.556659 L 132.939924 67.304742 L 119.94991 101.790922 C 116.916709 97.768634 114.015385 94.867311 111.180002 93.086953 C 108.344618 91.306596 105.113599 90.383448 101.421006 90.383448 C 89.947592 90.383448 84.210885 99.812748 84.210885 118.605408 C 84.210885 127.639073 85.595608 134.628624 88.365052 139.64 C 91.134497 144.585437 95.024908 147.025186 100.036284 147.025186 C 107.157713 147.025186 113.817568 141.947871 119.94991 131.79324 Z M 173.492507 89.855935 C 178.76764 89.855935 183.647138 90.910961 188.131001 93.086953 C 192.614864 95.197007 196.439335 98.230208 199.670354 102.186557 C 202.901372 106.076968 205.407061 110.758648 207.187418 116.09972 C 208.967775 121.506731 209.890923 127.375316 209.890923 133.705476 C 209.890923 140.167513 208.967775 146.167977 207.187418 151.574988 C 205.407061 156.981999 202.901372 161.663679 199.670354 165.48815 C 196.439335 169.378561 192.548924 172.345823 187.933183 174.521815 C 183.383381 176.631868 178.372005 177.752834 172.964994 177.752834 C 167.7558 177.752834 163.008181 176.631868 158.656196 174.455876 C 154.304212 172.213945 150.54568 169.180743 147.314661 165.224394 C 144.083642 161.333983 141.577954 156.718242 139.797597 151.311231 C 138.01724 145.970159 137.094091 140.101574 137.094091 133.705476 C 137.094091 127.375316 138.01724 121.506731 139.797597 116.09972 C 141.577954 110.758648 144.083642 106.142907 147.314661 102.252497 C 150.54568 98.362086 154.370151 95.328885 158.788075 93.152893 C 163.271938 90.9769 168.151435 89.855935 173.492507 89.855935 Z M 173.492507 118.803226 C 170.854941 118.803226 168.810827 120.187948 167.426105 122.891453 C 166.041382 125.594959 165.316052 129.485369 165.316052 134.562685 C 165.316052 139.771878 166.041382 143.728228 167.426105 146.431733 C 168.810827 149.201178 170.854941 150.519961 173.492507 150.519961 C 176.130074 150.519961 178.174188 149.201178 179.55891 146.431733 C 180.943632 143.728228 181.603024 139.903757 181.603024 134.892381 C 181.603024 124.144298 178.899518 118.803226 173.492507 118.803226 Z M 220.309311 119.99013 L 213.847273 119.99013 L 220.309311 91.570353 L 248.729088 91.570353 L 248.729088 117.088807 L 254.267978 91.570353 C 255.982396 91.438474 257.433057 91.438474 258.554023 91.438474 C 259.740928 91.438474 260.795954 91.438474 261.719103 91.438474 C 266.994235 91.438474 271.082463 91.900049 273.983786 92.889136 C 276.885109 93.878223 279.456737 95.72452 281.632729 98.362086 C 283.347147 100.472139 284.599991 102.78001 285.391261 105.483515 C 286.116592 108.121082 286.644105 111.945553 287.03974 117.088807 L 292.578629 91.570353 C 297.062492 91.570353 300.689146 91.636292 303.458591 91.76817 C 306.228035 91.834109 308.469967 92.097866 310.184385 92.493501 C 311.964742 92.823197 313.349465 93.284771 314.47043 93.944162 C 315.591396 94.603554 316.778301 95.394824 318.031145 96.449851 C 322.119373 99.944626 324.361304 104.626306 324.822878 110.692709 C 324.888817 111.681796 325.020696 112.604945 325.020696 113.264336 C 325.086635 113.989667 325.152574 114.912815 325.218513 116.033781 C 325.284452 117.220686 325.284452 118.737286 325.284452 120.715461 C 325.284452 122.693636 325.284452 125.463081 325.284452 129.023795 L 325.284452 148.27803 L 331.416794 148.27803 L 325.284452 175.972477 L 296.864675 175.972477 L 296.864675 139.64 C 296.864675 136.013346 296.864675 133.243902 296.864675 131.199788 C 296.864675 129.221613 296.864675 127.639073 296.798736 126.649986 C 296.732796 125.594959 296.600918 124.869628 296.46904 124.473993 C 296.271222 124.012419 296.073405 123.616784 295.875587 123.15521 C 295.282135 122.100184 294.358987 121.242974 293.040203 120.649522 C 291.787359 119.99013 290.402637 119.726374 288.886036 119.858252 C 288.094766 119.858252 287.435375 119.924191 287.03974 119.99013 L 287.03974 175.972477 L 258.554023 175.972477 L 258.554023 138.189338 C 258.554023 135.419894 258.554023 133.177962 258.488084 131.397605 C 258.422145 129.617248 258.356206 128.166586 258.290266 127.045621 C 258.290266 125.924655 258.158388 125.133385 257.960571 124.539932 C 257.828692 123.94648 257.630875 123.418967 257.367118 122.957393 C 256.378031 120.913279 254.07016 119.858252 250.641324 119.858252 C 250.377567 119.858252 250.113811 119.858252 249.784115 119.858252 C 249.520358 119.858252 249.190662 119.924191 248.729088 119.99013 L 248.729088 175.972477 L 220.309311 175.972477 Z M 220.309311 119.99013 " stroke="#ffffff" stroke-width="4.658056" stroke-opacity="1" stroke-miterlimit="4"/></g></svg>